<svg width="166" height="139" viewBox="0 0 166 139" fill="none" xmlns="http://www.w3.org/2000/svg">
<path d="M72.9461 7.8352C72.4581 4.77323 74.5447 1.89541 77.6067 1.40742C80.6687 0.919417 83.5465 3.00603 84.0345 6.06801L89.0493 37.5339L77.9609 39.3011L72.9461 7.8352Z" fill="white"/>
<path d="M72.9461 7.8352C72.4581 4.77323 74.5447 1.89541 77.6067 1.40742C80.6687 0.919417 83.5465 3.00603 84.0345 6.06801L89.0493 37.5339L77.9609 39.3011L72.9461 7.8352Z" fill="#EE87DE" fill-opacity="0.7"/>
<path d="M81.8545 3.45769C81.8545 3.45769 78.9484 3.88798 79.117 6.87345L82.6928 30.9097" stroke="#ED85E3" stroke-linecap="round" stroke-linejoin="round"/>
<path d="M75.2578 12.6964L74.7832 9.11954" stroke="#ED86E0" stroke-linecap="round" stroke-linejoin="round"/>
<path d="M77.4731 12.3165L76.9985 8.73966" stroke="#ED86E0" stroke-linecap="round" stroke-linejoin="round"/>
<path d="M129.381 67.0437C143.942 63.8359 147.182 82.3191 141.084 82.3195C133.63 82.3198 138.226 53.1645 155.756 55.2607C177.435 57.8528 146.419 94.7049 151.882 111.189" stroke="url(#paint0_linear_2618_14932)" stroke-linecap="round"/>
<rect x="121.664" y="53.3525" width="8.1389" height="21.4237" rx="2" transform="rotate(10.6269 121.664 53.3525)" fill="#ED84EA"/>
<path d="M122.622 4.6849C119.753 3.50985 116.474 4.88333 115.299 7.75265L106.172 30.0407C101.791 28.0668 96.8831 26.9611 91.7 26.9611C73.1978 26.9611 58.1987 41.0511 58.1987 58.432C58.1987 75.8129 73.1978 89.9029 91.7 89.9029C110.202 89.9029 125.201 75.8129 125.201 58.432C125.201 49.8808 121.571 42.1261 115.679 36.454L125.69 12.0079C126.865 9.13861 125.491 5.85998 122.622 4.6849Z" fill="url(#paint1_linear_2618_14932)"/>
<path d="M66.3833 54.7787C66.3833 54.592 66.4002 54.4068 66.4453 54.2256C66.8754 52.4972 69.7701 43.1289 81.9782 43.1289C95.4269 43.1289 104.374 51.7171 104.374 51.7171C104.374 51.7171 106.13 63.9425 102.521 68.8933C102.521 68.8933 94.0964 76.5316 81.9782 75.9658C71.3109 75.4677 67.3397 66.9365 66.5417 64.9008C66.4291 64.6136 66.3833 64.3102 66.3833 64.0017V54.7787Z" fill="url(#paint2_radial_2618_14932)"/>
<path d="M82.3357 47.5425C81.1503 47.5977 78.8581 47.061 76.2447 48.6328C74.805 49.4987 74.7738 47.8797 76.2081 46.3781C77.8536 44.6554 80.7863 44.2316 82.3001 44.8698C83.8139 45.5081 83.521 47.4873 82.3357 47.5425Z" fill="#0C0C0D"/>
<path d="M73.8855 67.6568C75.2813 69.252 77.5735 68.9853 78.4326 66.5511C70.9226 63.5003 73.3096 49.6391 82.4212 43.2661C72.3886 44.8242 69.8505 49.8284 68.1514 53.8594C68.1306 56.7465 68.2992 62.3259 68.3491 64.0706C68.3989 65.8153 73.8855 73.9095 77.7523 73.9095C74.5357 71.2341 73.8855 67.6568 73.8855 67.6568Z" fill="#0C0C0D"/>
<path d="M104.901 57.5586C104.448 57.2475 99.3308 52.8173 95.3994 46.1909C98.0859 47.6048 103.629 50.67 104.307 51.6202C104.986 52.5703 104.986 55.975 104.901 57.5586Z" fill="#0C0C0D"/>
<path d="M92.3753 48.492C93.5761 48.4238 95.8282 47.6518 98.634 48.9441C100.18 49.656 99.8498 48.7124 98.2402 47.3676C97.066 46.3864 95.5895 46.1714 94.195 45.3507C93.3851 45.3731 92.6498 45.541 92.1195 45.8295C90.6633 46.6216 91.1744 48.5602 92.3753 48.492Z" fill="#0C0C0D"/>
<path d="M83.9096 43.1864C72.3912 43.1864 69.1631 51.4839 68.4737 53.8658C68.352 54.2866 68.314 54.7185 68.314 55.1565V63.381C68.314 64.1009 68.4217 64.8186 68.7133 65.4768C69.9183 68.1969 74.059 75.5059 83.9089 75.9658" stroke="#ED85E2" stroke-linejoin="round"/>
<ellipse cx="80.0338" cy="52.9029" rx="1.24911" ry="2.28275" fill="#0C0C0D"/>
<ellipse cx="95.4532" cy="52.9029" rx="1.24911" ry="2.28275" fill="#0C0C0D"/>
<path d="M91.5701 59.5114C87.7898 60.587 84.6684 59.9068 82.9689 59.4435C82.3254 59.268 81.8565 59.7604 82.0127 60.4088C82.6251 62.9511 83.2758 65.906 86.343 66.2114C89.9906 66.5746 92.4538 63.2656 92.7727 60.3745C92.8433 59.7342 92.1897 59.3351 91.5701 59.5114Z" fill="white" stroke="#0C0C0D" stroke-linejoin="round"/>
<path d="M87.6958 66.1704C90.0471 65.9566 91.7802 63.0405 92.2001 61.6664C91.3025 61.799 88.1537 63.1663 86.9715 60.6989C85.9434 63.2177 84.0439 62.3207 82.7049 61.6665C81.6256 62.1992 84.624 64.5087 84.2606 65.2924C84.5278 65.6359 85.3445 66.3841 87.6958 66.1704Z" fill="#0C0C0D"/>
<path d="M72.6665 65.8457C78.7535 75.86 87.6875 76.6454 97.6033 72.2275" stroke="black"/>
<path d="M92.0146 59.9121C92.0147 61.978 90.3126 62.3975 89.5624 62.3975C87.3405 62.3975 87.5224 60.8167 87.6588 59.9121" stroke="#0C0C0D" stroke-linejoin="round"/>
<path d="M82.5864 59.9121C82.5864 61.978 84.1308 62.3975 84.8115 62.3975C86.8275 62.3975 86.6624 60.8167 86.5387 59.9121" stroke="#0C0C0D" stroke-linejoin="round"/>
<path d="M66.3833 55.1529C66.3833 54.7172 66.4209 54.2878 66.5412 53.869C67.2264 51.4836 70.4495 43.1289 81.9782 43.1289C94.1136 43.1289 102.584 50.1217 104.122 51.4874C104.289 51.6356 104.391 51.8333 104.419 52.0547C104.668 54.0562 105.774 64.4304 102.521 68.8933C102.521 68.8933 94.0964 76.5316 81.9782 75.9658C72.1283 75.5059 67.9877 68.1969 66.7826 65.4767C66.4911 64.8186 66.3833 64.1008 66.3833 63.381V55.1529Z" stroke="#0C0C0D" stroke-linejoin="round"/>
<path d="M81.381 35.3301C81.9947 31.9005 84.2246 28.5695 87.5533 27.203C92.4828 26.4705 100.622 27.1313 105.676 29.8221C103.511 30.5108 101.537 34.0918 100.436 36.7312C100.094 37.5508 99.2904 38.0998 98.4034 38.0569L83.1131 37.3177C82.0473 37.2661 81.1931 36.3805 81.381 35.3301Z" fill="#0C0C0D" fill-opacity="0.3"/>
<path d="M78.4175 81.7656V78.6167" stroke="black" stroke-linecap="round" stroke-linejoin="round"/>
<path d="M83.2471 81.7656V78.6167" stroke="black" stroke-linecap="round" stroke-linejoin="round"/>
<path d="M88.0767 81.7656V78.6167" stroke="black" stroke-linecap="round" stroke-linejoin="round"/>
<path d="M125.439 8.26723C125.439 8.26723 122.706 7.19052 121.362 9.8621L112.472 32.4781" stroke="#FFBD00" stroke-linecap="round" stroke-linejoin="round"/>
<path d="M117.152 13.0551L118.421 9.91668" stroke="#FFBD00" stroke-linecap="round" stroke-linejoin="round"/>
<path d="M115.211 12.6523L116.481 9.51384" stroke="#FFBD00" stroke-linecap="round" stroke-linejoin="round"/>
<path d="M124.963 69.3756C127.091 69.7857 129.148 68.3932 129.558 66.2653C129.968 64.1375 128.576 62.08 126.448 61.6699" stroke="#ED84EA"/>
<defs>
<linearGradient id="paint0_linear_2618_14932" x1="146.465" y1="55.1528" x2="146.465" y2="111.189" gradientUnits="userSpaceOnUse">
<stop stop-color="#ED84EA"/>
<stop offset="1" stop-color="#167DFF"/>
</linearGradient>
<linearGradient id="paint1_linear_2618_14932" x1="70.32" y1="31.6655" x2="98.2334" y2="94.0602" gradientUnits="userSpaceOnUse">
<stop stop-color="#EC83E9"/>
<stop offset="1" stop-color="#FFBD00"/>
</linearGradient>
<radialGradient id="paint2_radial_2618_14932" cx="0" cy="0" r="1" gradientUnits="userSpaceOnUse" gradientTransform="translate(85.5923 59.5623) rotate(90.7069) scale(20.3436 23.7795)">
<stop stop-color="white" stop-opacity="0"/>
<stop offset="1" stop-color="white"/>
</radialGradient>
</defs>
</svg>
