<svg width="166" height="139" viewBox="0 0 166 139" fill="none" xmlns="http://www.w3.org/2000/svg">
<g clip-path="url(#clip0_2618_14789)">
<path d="M29.5741 33.6011C31.6947 26.9508 33.9683 20.7145 36.0767 15.3398C36.5259 14.1948 36.9306 13.0728 37.3087 12.0244C37.7836 10.7078 38.2169 9.50629 38.6445 8.51964C39.4125 6.74716 42.064 6.35455 41.355 8.51964C40.9251 9.83256 40.0414 12.5334 39.4341 16.8052C39.8602 13.8082 41.9835 7.76391 42.7887 5.47185L42.8712 5.23668C43.7848 2.63303 46.1244 3.21338 46.1244 4.52257C46.1244 4.7882 45.845 6.05966 45.4713 7.7598C44.8247 10.7022 43.8959 14.9286 43.645 17.4473C44.0883 13.5846 46.4813 7.09824 47.6617 3.89897C47.9539 3.10696 48.1717 2.51641 48.2673 2.21699C48.9525 0.0703683 52.0466 0.266485 51.6402 2.21698C51.5186 2.80076 51.1176 4.3636 50.6324 6.25469C49.6297 10.1624 48.2673 15.4717 48.2673 16.4403C49.2025 12.8283 51.9044 7.16077 52.9129 5.78938C54.3347 3.85594 56.3763 5.35381 55.891 6.64443L55.8127 6.85261C53.9363 11.8419 51.0737 19.4536 50.1504 23.6249C53.8636 20.7936 58.2078 19.4268 59.3447 20.2389C60.4816 21.0509 60.8764 22.3829 57.4376 24.3036C54.9179 25.7109 52.0577 29.33 50.5732 31.3497C50.3699 31.5544 50.1623 31.7675 49.9507 31.9869C49.6173 32.3326 49.2734 32.6947 48.9183 33.0686L48.9176 33.0693C48.2341 33.7889 47.5091 34.5522 46.7374 35.3267C44.3922 37.6802 41.7095 40.0367 38.8101 41.2633C36.5543 42.2175 33.6387 41.7595 31.6962 39.801C30.3893 38.4834 29.4834 36.44 29.5741 33.6011Z" fill="url(#paint0_radial_2618_14789)"/>
<path d="M43.1733 80.8246C43.0492 80.7682 43.0048 80.7266 42.9909 80.7112C42.9962 80.6756 43.0288 80.559 43.2249 80.331C43.6958 79.7838 44.8213 78.9321 47.1383 77.6302C46.4278 78.8928 45.7267 79.746 45.0918 80.2673C44.241 80.9661 43.5915 81.0146 43.1733 80.8246Z" fill="url(#paint1_radial_2618_14789)"/>
<path fill-rule="evenodd" clip-rule="evenodd" d="M61.5973 81.723C53.7913 79.5541 49.8523 78.4597 46.211 72.9433C43.3792 68.6531 45.3236 43.6464 48.4966 34.9586C48.1553 35.3128 47.8045 35.6725 47.4457 36.0326C45.0878 38.3988 42.2899 40.877 39.1997 42.1842C36.5758 43.2942 33.2228 42.7602 30.9862 40.5052C29.9174 39.4277 29.1226 37.9798 28.7701 36.1674C22.3488 57.038 17.7791 81.3215 24.4698 95.7784C32.6444 113.442 56.4535 119.154 66.4906 120.372C62.4384 110.734 60.8629 90.1194 69.1818 83.9306C66.2955 83.0284 63.7941 82.3334 61.5988 81.7234L61.5973 81.723ZM28.526 40.6199C28.7868 40.5294 29.0717 40.6674 29.1623 40.9283C29.7344 42.5763 30.6143 43.658 31.6376 44.3401C32.6657 45.0254 33.8733 45.3301 35.1314 45.3624C37.6652 45.4273 40.314 44.3832 41.8287 43.2953C42.053 43.1342 42.3654 43.1854 42.5265 43.4097C42.6876 43.634 42.6364 43.9464 42.4121 44.1075C40.7472 45.3033 37.8885 46.4333 35.1058 46.362C33.7055 46.3262 32.3027 45.9852 31.083 45.1722C29.8585 44.356 28.8531 43.0869 28.2176 41.2563C28.127 40.9954 28.2651 40.7105 28.526 40.6199ZM48.766 76.6296C48.8555 76.4347 48.8108 76.2045 48.6549 76.0573C48.499 75.9101 48.2666 75.8787 48.0772 75.9793C44.8043 77.7166 43.1639 78.8689 42.467 79.6787C42.1228 80.0786 41.9032 80.5182 42.0207 80.9668C42.1347 81.4019 42.512 81.6225 42.7596 81.735C43.6613 82.1446 44.7179 81.8684 45.7265 81.0401C46.7371 80.2102 47.7828 78.7708 48.766 76.6296Z" fill="url(#paint2_radial_2618_14789)"/>
<path d="M68.4394 123.787C71.8827 129.896 77.8447 138.171 83.5399 138.906C90.4 139.791 142.246 139.869 166 139.5C150.308 114.904 134.83 100.953 120.773 92.5587C120.133 92.177 119.461 91.8156 118.761 91.4735L118.513 91.3538C118.362 91.2818 118.21 91.2107 118.056 91.1405C109.763 99.6183 115.124 123.301 118.718 129.717C111.002 126.006 104.295 109.347 105.345 97.5974C104.68 99.1786 104.103 100.909 103.609 102.759C102.102 108.403 101.387 115.09 101.271 121.886C101.248 123.255 100.145 124.377 98.7603 124.377H81.1596C78.6947 124.377 76.424 122.526 74.5721 119.801C72.7029 117.05 71.1709 113.285 70.2095 109.176C69.7272 107.115 69.3869 104.959 69.2205 102.793C67.841 110.917 67.851 119.604 68.4394 123.787Z" fill="url(#paint3_radial_2618_14789)"/>
<path d="M70.1338 98.3747C69.9891 101.889 70.387 105.545 71.1832 108.948C72.1247 112.973 73.6165 116.615 75.3992 119.239C77.1994 121.888 79.2089 123.377 81.1596 123.377H98.7603C99.5846 123.377 100.257 122.708 100.272 121.869C100.388 115.023 101.109 108.249 102.643 102.502C103.476 99.3808 104.554 96.5417 105.92 94.1544C106.429 92.1741 107.235 90.4312 108.384 89.0434C108.692 88.6713 109.097 88.4299 109.543 88.3099C99.1821 85.824 86.6418 85.4641 77.8034 85.412C74.0585 87.2289 71.6296 92.347 70.1338 98.3747Z" fill="url(#paint4_radial_2618_14789)"/>
<path d="M52.9306 5.76265C54.3524 3.82921 55.4337 5.30146 54.9484 6.59209L54.8701 6.80024C52.9938 11.7895 50.1312 19.4013 49.2078 23.5726C52.9211 20.7412 58.2255 19.4001 59.3624 20.2121C60.4993 21.0242 59.58 22.0722 56.1413 23.9928C52.7026 25.9134 47.1522 31.719 46.7832 32.1727C38.993 41.7508 24.889 41.4595 36.0944 15.3131C37.1078 12.7299 37.8941 10.2654 38.6622 8.49291C39.4302 6.72043 41.4243 6.32782 40.7153 8.49291C40.2854 9.80583 39.0611 13.9646 39.4518 16.7784C39.8934 13.6723 42.1581 7.29287 42.889 5.20994C43.8025 2.60629 45.3683 3.24676 45.3683 4.55595C45.3683 5.2813 43.5183 12.8159 43.2739 17.2101C44.713 11.7131 47.8034 3.69916 48.285 2.19026C48.9702 0.0436358 51.2713 0.605008 50.8649 2.55551C50.4919 4.34559 47.492 15.3415 47.492 16.7788C48.4272 13.1668 51.9221 7.13403 52.9306 5.76265Z" fill="white" fill-opacity="0.4"/>
<path d="M112.438 79.7729C133.543 83.5997 131.572 84.1794 133.659 86.8467C135.747 89.5139 153.142 112.707 154.765 115.606C157.077 119.734 155.693 126.043 151.866 126.971" stroke="#167DFF" stroke-linecap="round" stroke-linejoin="round"/>
<path d="M145.294 102.353C148.131 108.79 143.112 112.5 136.129 106.281" stroke="url(#paint5_linear_2618_14789)" stroke-linecap="round"/>
<path d="M125.437 92.752L130.674 88.3877" stroke="url(#paint6_linear_2618_14789)" stroke-linecap="round"/>
<path d="M119.351 87.6807L122.251 85.2642" stroke="url(#paint7_linear_2618_14789)" stroke-linecap="round"/>
<path d="M115.632 86.8355L118.532 84.4189" stroke="url(#paint8_linear_2618_14789)" stroke-linecap="round"/>
<path fill-rule="evenodd" clip-rule="evenodd" d="M57.2307 118.6C45.8722 115.701 30.6716 109.179 24.4698 95.7783C20.1063 86.35 20.5322 72.7421 23.1375 58.6272C23.1759 58.464 23.2147 58.3005 23.254 58.1366C23.254 58.1366 28.8195 53.3399 30.7079 65.614C30.9658 67.2903 31.0452 69.404 31.1345 71.7832C31.4683 80.6702 31.9413 93.2626 42.377 100.612C47.5199 104.234 51.5531 106.594 54.562 108.354C59.2932 111.123 61.4923 112.41 61.4923 114.79C61.4923 118.684 58.4703 118.881 58.4703 118.881C58.4229 118.87 58.3718 118.859 58.317 118.847C58.0421 118.786 57.6763 118.704 57.2307 118.6Z" fill="#0C0C0D" fill-opacity="0.2"/>
<path d="M148.141 127.759C138.912 119.637 139.329 113.181 142.182 109.377C145.976 112.781 155.022 123.48 159.29 129.879C157.503 131.017 152.631 131.709 148.141 127.759Z" fill="#0C0C0D" fill-opacity="0.2"/>
<path d="M122.282 97.4297C119.008 100.039 118.317 104.021 118.267 104.566" stroke="#167DFF" stroke-linecap="round"/>
</g>
<defs>
<radialGradient id="paint0_radial_2618_14789" cx="0" cy="0" r="1" gradientUnits="userSpaceOnUse" gradientTransform="translate(91.618 87.7615) rotate(99.6599) scale(43.4393 58.3166)">
<stop stop-color="#ED85E4"/>
<stop offset="1" stop-color="#167DFF"/>
</radialGradient>
<radialGradient id="paint1_radial_2618_14789" cx="0" cy="0" r="1" gradientUnits="userSpaceOnUse" gradientTransform="translate(91.618 87.7615) rotate(99.6599) scale(43.4393 58.3166)">
<stop stop-color="#ED85E4"/>
<stop offset="1" stop-color="#167DFF"/>
</radialGradient>
<radialGradient id="paint2_radial_2618_14789" cx="0" cy="0" r="1" gradientUnits="userSpaceOnUse" gradientTransform="translate(91.618 87.7615) rotate(99.6599) scale(43.4393 58.3166)">
<stop stop-color="#ED85E4"/>
<stop offset="1" stop-color="#167DFF"/>
</radialGradient>
<radialGradient id="paint3_radial_2618_14789" cx="0" cy="0" r="1" gradientUnits="userSpaceOnUse" gradientTransform="translate(91.618 87.7615) rotate(99.6599) scale(43.4393 58.3166)">
<stop stop-color="#ED85E4"/>
<stop offset="1" stop-color="#167DFF"/>
</radialGradient>
<radialGradient id="paint4_radial_2618_14789" cx="0" cy="0" r="1" gradientUnits="userSpaceOnUse" gradientTransform="translate(91.618 87.7615) rotate(99.6599) scale(43.4393 58.3166)">
<stop stop-color="#ED85E4"/>
<stop offset="1" stop-color="#167DFF"/>
</radialGradient>
<linearGradient id="paint5_linear_2618_14789" x1="141.115" y1="102.353" x2="141.115" y2="109.473" gradientUnits="userSpaceOnUse">
<stop stop-color="#167DFF"/>
<stop offset="1" stop-color="#167DFF"/>
</linearGradient>
<linearGradient id="paint6_linear_2618_14789" x1="128.056" y1="88.3877" x2="128.056" y2="92.752" gradientUnits="userSpaceOnUse">
<stop stop-color="#167DFF"/>
<stop offset="1" stop-color="#167DFF"/>
</linearGradient>
<linearGradient id="paint7_linear_2618_14789" x1="120.801" y1="85.2642" x2="120.801" y2="87.6807" gradientUnits="userSpaceOnUse">
<stop stop-color="#167DFF"/>
<stop offset="1" stop-color="#167DFF"/>
</linearGradient>
<linearGradient id="paint8_linear_2618_14789" x1="117.082" y1="84.4189" x2="117.082" y2="86.8355" gradientUnits="userSpaceOnUse">
<stop stop-color="#167DFF"/>
<stop offset="1" stop-color="#167DFF"/>
</linearGradient>
<clipPath id="clip0_2618_14789">
<rect width="166" height="139" fill="white"/>
</clipPath>
</defs>
</svg>
